<?xml version="1.0" encoding="UTF-8"?>
<!DOCTYPE svg PUBLIC "-//W3C//DTD SVG 1.1//EN" "http://www.w3.org/Graphics/SVG/1.1/DTD/svg11.dtd">
<!-- Creator: CorelDRAW -->
<svg xmlns="http://www.w3.org/2000/svg" xml:space="preserve" width="2.66666in" height="2.66666in" version="1.1" style="shape-rendering:geometricPrecision; text-rendering:geometricPrecision; image-rendering:optimizeQuality; fill-rule:evenodd; clip-rule:evenodd"
viewBox="0 0 2667 2667"
 xmlns:xlink="http://www.w3.org/1999/xlink">
 <defs>
  <style type="text/css">
   <![CDATA[
    .fil0 {fill:#FF700D}
    .fil1 {fill:white}
   ]]>
  </style>
 </defs>
 <g id="Layer_x0020_1">
  <metadata id="CorelCorpID_0Corel-Layer"/>
  <circle class="fil0" cx="1333" cy="1333" r="1333"/>
  <path class="fil1" d="M981 1236c-48,0 -87,-39 -87,-87 0,-48 39,-87 87,-87 48,0 86,39 86,87 0,48 -38,87 -86,87zm1149 696c-4,0 -8,-1 -11,-3l-240 -139c-284,107 -662,18 -783,-229 -107,8 -215,-8 -309,-43l-239 139c-17,9 -39,-7 -34,-26l66 -246c-258,-273 11,-650 462,-650 240,0 450,109 529,274 317,-22 615,160 615,412 0,85 -34,167 -100,236l66 246c4,14 -7,29 -22,29zm-1055 -599c57,-191 263,-294 448,-319 -78,-139 -270,-234 -481,-234 -413,0 -666,337 -420,583 5,5 8,14 5,21l-55 206 202 -116c6,-4 13,-4 20,-2 86,34 184,50 284,45 -20,-60 -21,-124 -3,-184zm806 409c4,0 8,2 12,4l201 116 -55 -205c-2,-8 0,-17 6,-22 246,-246 -7,-583 -421,-583 -149,0 -310,48 -416,151 -250,244 -4,587 416,587 145,0 245,-48 257,-48zm-506 -234c-48,0 -87,-39 -87,-87 0,-47 39,-86 87,-86 47,0 86,39 86,86 0,48 -39,87 -86,87zm0 -128c-54,0 -54,83 0,83 54,0 54,-83 0,-83zm248 128c-47,0 -86,-39 -86,-87 0,-47 39,-86 86,-86 48,0 87,39 87,86 0,48 -39,87 -87,87zm0 -128c-54,0 -54,83 0,83 54,0 54,-83 0,-83zm249 128c-48,0 -86,-39 -86,-87 0,-47 38,-86 86,-86 48,0 87,39 87,86 0,48 -39,87 -87,87zm0 -128c-54,0 -54,83 0,83 54,0 54,-83 0,-83zm-1153 -144c-48,0 -87,-39 -87,-87 0,-48 39,-87 87,-87 47,0 86,39 86,87 0,48 -39,87 -86,87zm0 -128c-54,0 -54,82 0,82 54,0 54,-82 0,-82zm262 0c-54,0 -54,82 0,82 54,0 54,-82 0,-82z"/>
 </g>
</svg>
