<svg version="1.1" id="Icons" xmlns="http://www.w3.org/2000/svg" xmlns:xlink="http://www.w3.org/1999/xlink" x="0px" y="0px" viewBox="0 0 32 32" style="enable-background:new 0 0 32 32;" xml:space="preserve">
<g>
	<path d="M11,26H7c-0.5,0-0.9-0.4-1-0.9c-0.1-0.5,0.3-1,0.8-1.1L7,24c4.4-1,7.5-4.6,8-9h-3.5c-0.8,0-1.5-0.5-1.8-1.2
		s-0.1-1.6,0.4-2.2l8.3-8.3c0.4-0.4,1-0.4,1.4,0l8.3,8.3c0.6,0.6,0.7,1.4,0.4,2.2s-1,1.2-1.8,1.2H23C22.4,21.2,17.3,26,11,26z" id="id_101" style="fill: rgb(247, 142, 13);"></path>
</g>
</svg>