<?xml version="1.0" encoding="utf-8"?>
<!-- Generator: Adobe Illustrator 23.0.3, SVG Export Plug-In . SVG Version: 6.00 Build 0)  -->
<svg version="1.1" id="Icons" xmlns="http://www.w3.org/2000/svg" xmlns:xlink="http://www.w3.org/1999/xlink" x="0px" y="0px"
	 viewBox="0 0 32 32" style="enable-background:new 0 0 32 32;" xml:space="preserve">
<g>
	<path d="M16,16c-1.7,0-3-1.3-3-3s1.3-3,3-3s3,1.3,3,3S17.7,16,16,16z"/>
</g>
<g>
	<path d="M26,23h-2.3c-1,0-2-0.5-2.6-1.3c-0.6-0.8-0.8-1.8-0.6-2.8c0.3-1,0.4-2,0.5-3c0,0,0-0.1,0-0.1c0-0.3,0-0.6,0-0.9
		c0-4.7-2-8.9-5-10.7c-3,1.8-5,6-5,10.7c0,1.4,0.2,2.8,0.5,4.1c0.3,1,0.1,2-0.6,2.8C10.3,22.5,9.4,23,8.3,23H6
		c-0.3,0-0.6-0.1-0.8-0.4C5,22.4,5,22.1,5,21.8C5.6,19.3,7,17,9,15.4c0-0.2,0-0.4,0-0.6C9,9.2,11.6,4,15.6,2.1
		c0.3-0.1,0.6-0.1,0.9,0C20.4,4,23,9.2,23,14.8c0,0.2,0,0.4,0,0.6c1.9,1.6,3.3,3.8,3.9,6.4c0.1,0.3,0,0.6-0.2,0.9
		C26.6,22.9,26.3,23,26,23z"/>
</g>
<g>
	<path d="M16,31c-0.6,0-1-0.4-1-1v-8c0-0.6,0.4-1,1-1s1,0.4,1,1v8C17,30.6,16.6,31,16,31z"/>
</g>
<g>
	<path d="M13,29c-0.6,0-1-0.4-1-1v-4c0-0.6,0.4-1,1-1s1,0.4,1,1v4C14,28.6,13.6,29,13,29z"/>
</g>
<g>
	<path d="M19,29c-0.6,0-1-0.4-1-1v-4c0-0.6,0.4-1,1-1s1,0.4,1,1v4C20,28.6,19.6,29,19,29z"/>
</g>
</svg>
