<svg xmlns="http://www.w3.org/2000/svg" xml:space="preserve" width="512px" height="512px" version="1.1" style="shape-rendering:geometricPrecision; text-rendering:geometricPrecision; image-rendering:optimizeQuality; fill-rule:evenodd; clip-rule:evenodd" viewBox="0 0 512 512" xmlns:xlink="http://www.w3.org/1999/xlink">
 <defs>
  <style type="text/css">
   
    .str0 {stroke:black;stroke-width:18.0001;stroke-linecap:round;stroke-linejoin:round}
    .fil0 {fill:none}
   
  </style>
 </defs>
 <g id="Layer_x0020_1">
  <metadata id="CorelCorpID_0Corel-Layer"></metadata>
  <g id="_529801800">
   <path class="fil0 str0" d="M360 477c0,-237 0,-152 0,-442l-351 0c0,290 0,205 0,442l351 0z" id="id_101"></path>
   <path class="fil0 str0" d="M455 357l-28 69 -29 -69 0 -244c0,-37 57,-37 57,0l0 244z" id="id_102"></path>
   <polygon class="fil0 str0" points="398,350 398,162 455,162 455,350 " id="id_103"></polygon>
   <polyline class="fil0 str0" points="455,162 503,162 503,250 " id="id_104"></polyline>
   <line class="fil0 str0" x1="61" y1="99" x2="307" y2="99" id="id_105"></line>
   <line class="fil0 str0" x1="61" y1="162" x2="307" y2="162" id="id_106"></line>
   <line class="fil0 str0" x1="61" y1="225" x2="307" y2="225" id="id_107"></line>
   <line class="fil0 str0" x1="61" y1="287" x2="307" y2="287" id="id_108"></line>
   <line class="fil0 str0" x1="61" y1="350" x2="307" y2="350" id="id_109"></line>
   <line class="fil0 str0" x1="61" y1="413" x2="307" y2="413" id="id_110"></line>
  </g>
 </g>
</svg>