<?xml version="1.0" encoding="UTF-8" standalone="no"?> <svg width="64" height="64" viewBox="0 0 64 64" fill="none" xmlns="http://www.w3.org/2000/svg">
<path d="M32.0499 58.9001C31.6566 58.8929 31.2809 58.7355 30.9999 58.4601C30.9999 58.4601 8.22992 35.8301 7.68992 35.1601C-0.590079 26.1601 2.07992 15.8801 8.05992 10.1601C13.7999 4.6401 23.5699 2.3601 31.9999 9.7901C34.403 7.53783 37.4038 6.02516 40.6437 5.43287C43.8835 4.84058 47.2254 5.19372 50.2699 6.4501C52.9976 7.49781 55.4197 9.21146 57.3155 11.4349C59.2113 13.6583 60.5206 16.3209 61.124 19.1798C61.7274 22.0388 61.6058 25.0033 60.7702 27.8032C59.9346 30.6032 58.4115 33.1495 56.3399 35.2101L33.1099 58.4601C32.8271 58.7388 32.447 58.8965 32.0499 58.9001ZM20.2499 8.1201C16.4675 8.16966 12.8485 9.66953 10.1399 12.3101C5.13992 17.0601 2.97992 25.6101 9.88992 33.1301C9.99992 33.2301 27.5099 50.7501 31.9999 55.2801L54.2199 33.0901C55.5799 31.7381 56.6584 30.1299 57.393 28.3585C58.1276 26.5872 58.5039 24.6878 58.4999 22.7701C58.5352 19.8294 57.6578 16.9502 55.9887 14.5288C54.3196 12.1075 51.9408 10.2633 49.1799 9.2501C46.463 8.12912 43.4653 7.87819 40.5997 8.53188C37.7342 9.18558 35.1419 10.7117 33.1799 12.9001C33.0459 13.0538 32.882 13.1787 32.6984 13.2673C32.5147 13.356 32.315 13.4065 32.1113 13.4158C31.9076 13.4252 31.7041 13.3931 31.5131 13.3217C31.322 13.2503 31.1475 13.1409 30.9999 13.0001C29.6313 11.5018 27.973 10.2968 26.1252 9.45804C24.2774 8.61924 22.2787 8.16408 20.2499 8.1201Z" fill="black"/>
</svg>
